<svg width="59" height="30" viewBox="0 0 59 30" fill="none" xmlns="http://www.w3.org/2000/svg">
<path d="M21.4962 10.6246L13.4187 3.38359C12.8604 2.88311 12.8604 2.07381 13.4187 1.57865L14.761 0.375363C15.3193 -0.125121 16.2221 -0.125121 16.7745 0.375363L22.5 5.50799L28.2255 0.375363C28.7838 -0.125121 29.6866 -0.125121 30.239 0.375363L31.5813 1.57865C32.1396 2.07914 32.1396 2.88843 31.5813 3.38359L23.5038 10.6246C22.9573 11.1251 22.0545 11.1251 21.4962 10.6246Z" fill="#FF4A4A"/>
<path d="M35.4962 29.6246L27.4187 22.3836C26.8604 21.8831 26.8604 21.0738 27.4187 20.5787L28.761 19.3754C29.3193 18.8749 30.2221 18.8749 30.7745 19.3754L36.5 24.508L42.2255 19.3754C42.7838 18.8749 43.6866 18.8749 44.239 19.3754L45.5813 20.5787C46.1396 21.0791 46.1396 21.8884 45.5813 22.3836L37.5038 29.6246C36.9573 30.1251 36.0545 30.1251 35.4962 29.6246Z" fill="#FF4A4A"/>
<path d="M48.4962 10.6246L40.4187 3.38359C39.8604 2.88311 39.8604 2.07381 40.4187 1.57865L41.761 0.375363C42.3193 -0.125121 43.2221 -0.125121 43.7745 0.375363L49.5 5.50799L55.2255 0.375363C55.7838 -0.125121 56.6866 -0.125121 57.239 0.375363L58.5813 1.57865C59.1396 2.07914 59.1396 2.88843 58.5813 3.38359L50.5038 10.6246C49.9573 11.1251 49.0545 11.1251 48.4962 10.6246Z" fill="#FF4A4A"/>
<path d="M8.49625 29.6246L0.418725 22.3836C-0.139575 21.8831 -0.139575 21.0738 0.418725 20.5787L1.76102 19.3754C2.31932 18.8749 3.2221 18.8749 3.77446 19.3754L9.5 24.508L15.2255 19.3754C15.7838 18.8749 16.6866 18.8749 17.239 19.3754L18.5813 20.5787C19.1396 21.0791 19.1396 21.8884 18.5813 22.3836L10.5038 29.6246C9.95733 30.1251 9.05455 30.1251 8.49625 29.6246Z" fill="#FF4A4A"/>
</svg>
